Coordinates
version=1
nRows=9
nColumns=40
inDegrees=yes

Units are S.I. units (second, meters, Newtons, ...)
If the header above contains a line with 'inDegrees', this indicates whether rotational values are in degrees (yes) or radians (no).

endheader
time	pelvis_tilt	pelvis_list	pelvis_rotation	pelvis_tx	pelvis_ty	pelvis_tz	hip_flexion_r	hip_adduction_r	hip_rotation_r	knee_angle_r	knee_angle_r_beta	ankle_angle_r	subtalar_angle_r	mtp_angle_r	hip_flexion_l	hip_adduction_l	hip_rotation_l	knee_angle_l	knee_angle_l_beta	ankle_angle_l	subtalar_angle_l	mtp_angle_l	lumbar_extension	lumbar_bending	lumbar_rotation	arm_flex_r	arm_add_r	arm_rot_r	elbow_flex_r	pro_sup_r	wrist_flex_r	wrist_dev_r	arm_flex_l	arm_add_l	arm_rot_l	elbow_flex_l	pro_sup_l	wrist_flex_l	wrist_dev_l
     17.08999999999999985789	     23.47259238819330207093	    -12.69891615514164406875	    178.65227869189581610954	      0.37709849460844380165	      0.67501337793783300345	     -0.59942105422466152032	     91.62522718333484306186	     -9.96662706908142759232	     13.06914795583029942350	     87.68747423732673951235	      1.53043513819905530049	     23.81571799284045454215	      0.00000000000000000000	      0.00000000000000000000	     83.11988566120635368861	     -4.63330612020912457893	    -11.20095945240349166738	     84.06083247641345224110	      1.46713829868079326246	     26.78094368988356421823	      0.00000000000000000000	      0.00000000000000000000	    -47.91624462220909919097	     -9.03823214932866392246	     -9.19057276534963207837	     58.59102330756354604091	    -12.24719379437159361146	     46.11717919223874417867	      9.23485227620248316782	      8.38914073875382548806	      0.00000000000000000000	      0.00000000000000000000	     66.89291175147546653079	    -18.12778559155652047252	     44.75719193824512132096	     14.94815000297794860273	     85.94675257857011274609	      0.00000000000000000000	      0.00000000000000000000
     17.09499999999999886313	     23.50538134885568908317	    -12.69127874445547199400	    178.57868497251936901193	      0.37670719206355735009	      0.67526443636959099237	     -0.59953951905631530650	     91.59197943617124337834	     -9.87452526175326106284	     13.06968116219046471826	     87.64723026526540650138	      1.52973274838250428154	     23.80333910685729037482	      0.00000000000000000000	      0.00000000000000000000	     83.09876501633527823287	     -4.73920640650389568549	    -11.25187164123591720966	     84.06522544284119646818	      1.46721497040888704255	     26.79496991163641794742	      0.00000000000000000000	      0.00000000000000000000	    -47.92235383068900489434	     -9.09346458571575055885	     -9.15881333134717579014	     58.59680370203425070486	    -12.23886894990915052972	     46.11300117940312759401	      9.23658267529299337184	      8.38805121575259526878	      0.00000000000000000000	      0.00000000000000000000	     66.90896720355364379884	    -18.13421825369616868784	     44.74978450759392956115	     14.94735492452092096016	     85.94470854649497937316	      0.00000000000000000000	      0.00000000000000000000
     17.10000000000000142109	     23.52052257237118837452	    -12.72710297180083394153	    178.46764794436683132517	      0.37629389535124618815	      0.67549465955716825327	     -0.59970382297498514568	     91.58230085821928412315	     -9.81124033274915774427	     13.04052130404351927950	     87.62938586020881359673	      1.52942130476120730087	     23.79831293541301917571	      0.00000000000000000000	      0.00000000000000000000	     83.06671350296521438850	     -4.79943385546181744417	    -11.23768699885398447691	     84.06892019328556386881	      1.46727945596918085691	     26.80173454933705912140	      0.00000000000000000000	      0.00000000000000000000	    -47.93878283520544414387	     -9.19514862374742492079	     -9.12002941256616139754	     58.61745475283065331951	    -12.23226307175113980463	     46.11458781602684098289	      9.24212297204742760925	      8.38866500525137759325	      0.00000000000000000000	      0.00000000000000000000	     66.88664748328336884242	    -18.14167069302098056482	     44.74916807617692171561	     14.94121008835682573590	     85.94498292886510171229	      0.00000000000000000000	      0.00000000000000000000
     17.10500000000000042633	     23.59014213357454536890	    -12.68790478648306496723	    178.48868394425744554610	      0.37598138499860994655	      0.67574048460472446731	     -0.59966149196328333293	     91.55535406794243158402	     -9.76602310044487964547	     13.06919581274799035953	     87.56498181915949885479	      1.52829724219330720381	     23.81533176670252061058	      0.00000000000000000000	      0.00000000000000000000	     83.06282875997446524252	     -4.87461851965115577912	    -11.32496456348200020159	     84.01988375506546447014	      1.46642360866878918024	     26.81590508585081522597	      0.00000000000000000000	      0.00000000000000000000	    -47.91846670660988394275	     -9.15821768871654384725	     -9.11085855563185376127	     58.59204026503303452955	    -12.22148809292739990440	     46.10334553140187807685	      9.23835239971669786030	      8.38689692046614965193	      0.00000000000000000000	      0.00000000000000000000	     66.91513215678142501019	    -18.13199669567416805194	     44.74793921476443614438	     14.94149781673706556262	     85.94336915594476522529	      0.00000000000000000000	      0.00000000000000000000
     17.10999999999999943157	     23.61196087462270298829	    -12.72105004679740147822	    178.39838460894955574076	      0.37554982854904284117	      0.67595419909264342628	     -0.59975846673069677095	     91.55145301282030345646	     -9.72355948393759739190	     13.04549552526802003172	     87.54968590673578887618	      1.52803027815941683265	     23.81478045855120839747	      0.00000000000000000000	      0.00000000000000000000	     83.03698857085957740765	     -4.91478433403062275886	    -11.31055039061998535033	     84.02192978603984840902	      1.46645931864589007532	     26.82121089841851002689	      0.00000000000000000000	      0.00000000000000000000	    -47.93442687182987071992	     -9.23664664224223486144	     -9.07888966838502042833	     58.60597971855019494569	    -12.21540195474578283097	     46.10419495354621233218	      9.24285959858461048100	      8.38729789965999472656	      0.00000000000000000000	      0.00000000000000000000	     66.89349077325974235464	    -18.13720067498111632176	     44.74823285960026453267	     14.93380684237974342921	     85.94376869433502008633	      0.00000000000000000000	      0.00000000000000000000
     17.11499999999999843681	     23.91120313757948423472	    -12.69942080945025075778	    178.64101364154294060427	      0.37547288067064155115	      0.67587848113890502955	     -0.59916709419224767341	     91.77996569460344744584	     -9.92986419190227387332	     13.02745586914521958022	     87.45183403411063238764	      1.52632244080286572085	     23.86522388920633375164	      0.00000000000000000000	      0.00000000000000000000	     83.30424202226261343185	     -4.73421937908017120833	    -11.31487234179546419455	     83.90453021664876587238	      1.46441030961959217649	     26.80238158727813768678	      0.00000000000000000000	      0.00000000000000000000	    -47.67461502148156426983	     -9.07778333259395431298	     -9.15978383333950496592	     58.58312104021310773305	    -12.17504579862633384835	     45.56722915645919158578	      9.06853182505114752132	      9.30162090058927937264	      0.00000000000000000000	      0.00000000000000000000	     66.90256177463054143573	    -18.04719462404321816962	     44.81209647610707946797	     14.83393414069011662093	     85.99647782306523424722	      0.00000000000000000000	      0.00000000000000000000
     17.12000000000000099476	     23.91374581848546299057	    -12.74281308256122180467	    178.50964509727697304697	      0.37510202616728066660	      0.67603769974173599788	     -0.59938350071064649960	     91.77210099595563974617	     -9.85045336194474430158	     13.00211305243121095998	     87.44093004799681523309	      1.52613213034358774500	     23.85916145268354071618	      0.00000000000000000000	      0.00000000000000000000	     83.26702786586663762591	     -4.80023609760883918085	    -11.28959883065430958027	     83.91051605258742540627	      1.46451478216520603048	     26.81066117228662193384	      0.00000000000000000000	      0.00000000000000000000	    -47.69649456871599824126	     -9.19938662001430351722	     -9.10527832112112811558	     58.60985282533304285835	    -12.17077617317072224523	     45.57085169302969518412	      9.07433199991723959954	      9.30021719281011449709	      0.00000000000000000000	      0.00000000000000000000	     66.88355913645860084671	    -18.05858341344426776232	     44.80956429519109462944	     14.82868394042972326474	     85.99609528451203743771	      0.00000000000000000000	      0.00000000000000000000
     17.12500000000000000000	     23.95681564230273608018	    -12.71309898202237320675	    178.51327310221813604585	      0.37478247950022042234	      0.67622164933705997125	     -0.59941839384495354537	     91.74162829884222958299	     -9.77327734571282036313	     13.05978580197833593957	     87.41666171093072534859	      1.52570856795780063209	     23.86611384667780910718	      0.00000000000000000000	      0.00000000000000000000	     83.25205667910245210805	     -4.86964044904771675704	    -11.34767794902300686033	     83.88175712944864415022	      1.46401284426710631692	     26.83301597641089131230	      0.00000000000000000000	      0.00000000000000000000	    -47.70190921375218806588	     -9.18798200438519607758	     -9.06421814312668594482	     58.57379911746381395687	    -12.17852265380419929386	     45.57011015013777210925	      9.06104028345540157829	      9.28837343400994974729	      0.00000000000000000000	      0.00000000000000000000	     66.93244828423019043839	    -18.04509414487633378599	     44.80200914516260723985	     14.85405892511363568076	     85.99164987432988027649	      0.00000000000000000000	      0.00000000000000000000
     17.12999999999999900524	     23.97174304463415595023	    -12.74074768484257624834	    178.42413141957709399321	      0.37440101687772864292	      0.67639013107042766926	     -0.59951798681073797948	     91.73267016456230749100	     -9.72554406000030446933	     13.03980782219238143682	     87.40194110458459419988	      1.52545164490917084521	     23.86454247017915619722	      0.00000000000000000000	      0.00000000000000000000	     83.22452561354600675259	     -4.91369621835987846481	    -11.33331085174978092311	     83.88629252821885984304	      1.46409200190853749923	     26.84129746784282488647	      0.00000000000000000000	      0.00000000000000000000	    -47.71453468440525824690	     -9.27948230693128728319	     -9.03067490195319777513	     58.59554789290448439942	    -12.18364844337991925727	     45.57151431261634400016	      9.06342106445251438629	      9.28656452616310623682	      0.00000000000000000000	      0.00000000000000000000	     66.91058894880140428540	    -18.04992514833334027458	     44.80136765505339724314	     14.85023046582013428463	     85.99154386054738097300	      0.00000000000000000000	      0.00000000000000000000
